<mxfile host="app.diagrams.net" modified="2024-04-23T07:23:29.710Z" agent="Mozilla/5.0 (Windows NT 10.0; Win64; x64) AppleWebKit/537.36 (KHTML, like Gecko) Chrome/123.0.0.0 Safari/537.36" etag="nsGWVYamWMeSmrjPXaD-" version="24.2.1" type="github">
  <diagram name="Page-1" id="uWKu4BLwZ0ViuSMfZipp">
    <mxGraphModel dx="1196" dy="527" grid="1" gridSize="10" guides="1" tooltips="1" connect="1" arrows="1" fold="1" page="1" pageScale="1" pageWidth="827" pageHeight="1169" math="0" shadow="0">
      <root>
        <mxCell id="0" />
        <mxCell id="1" parent="0" />
        <mxCell id="0EuvKEp8oKL2YxaMZls--1" value="utilisateur" style="shape=umlActor;verticalLabelPosition=bottom;verticalAlign=top;html=1;outlineConnect=0;" vertex="1" parent="1">
          <mxGeometry x="150" y="290" width="30" height="60" as="geometry" />
        </mxCell>
        <mxCell id="0EuvKEp8oKL2YxaMZls--5" value="Admin" style="shape=umlActor;verticalLabelPosition=bottom;verticalAlign=top;html=1;outlineConnect=0;" vertex="1" parent="1">
          <mxGeometry x="150" y="555" width="30" height="60" as="geometry" />
        </mxCell>
        <mxCell id="0EuvKEp8oKL2YxaMZls--6" value="" style="endArrow=none;html=1;rounded=0;exitX=0;exitY=0.5;exitDx=0;exitDy=0;" edge="1" parent="1" source="0EuvKEp8oKL2YxaMZls--9" target="0EuvKEp8oKL2YxaMZls--5">
          <mxGeometry width="50" height="50" relative="1" as="geometry">
            <mxPoint x="356" y="540" as="sourcePoint" />
            <mxPoint x="340" y="420" as="targetPoint" />
          </mxGeometry>
        </mxCell>
        <mxCell id="0EuvKEp8oKL2YxaMZls--7" value="" style="endArrow=classic;html=1;rounded=0;exitX=0.5;exitY=0;exitDx=0;exitDy=0;exitPerimeter=0;" edge="1" parent="1" source="0EuvKEp8oKL2YxaMZls--5" target="0EuvKEp8oKL2YxaMZls--1">
          <mxGeometry width="50" height="50" relative="1" as="geometry">
            <mxPoint x="180" y="470" as="sourcePoint" />
            <mxPoint x="230" y="420" as="targetPoint" />
          </mxGeometry>
        </mxCell>
        <mxCell id="0EuvKEp8oKL2YxaMZls--8" value="voire le site&amp;nbsp;" style="ellipse;whiteSpace=wrap;html=1;" vertex="1" parent="1">
          <mxGeometry x="330" y="280" width="120" height="40" as="geometry" />
        </mxCell>
        <mxCell id="0EuvKEp8oKL2YxaMZls--9" value="supprimer le roman et&amp;nbsp; le jeu" style="ellipse;whiteSpace=wrap;html=1;" vertex="1" parent="1">
          <mxGeometry x="320" y="550" width="140" height="60" as="geometry" />
        </mxCell>
        <mxCell id="0EuvKEp8oKL2YxaMZls--10" value="s&#39;inscrire" style="ellipse;whiteSpace=wrap;html=1;" vertex="1" parent="1">
          <mxGeometry x="330" y="220" width="120" height="40" as="geometry" />
        </mxCell>
        <mxCell id="0EuvKEp8oKL2YxaMZls--12" value="modifier le roman et le jeu" style="ellipse;whiteSpace=wrap;html=1;" vertex="1" parent="1">
          <mxGeometry x="325" y="490" width="135" height="50" as="geometry" />
        </mxCell>
        <mxCell id="0EuvKEp8oKL2YxaMZls--13" value="ajouter le roman ou le jeu" style="ellipse;whiteSpace=wrap;html=1;" vertex="1" parent="1">
          <mxGeometry x="510" y="110" width="120" height="50" as="geometry" />
        </mxCell>
        <mxCell id="0EuvKEp8oKL2YxaMZls--14" value="ajouter le roman ou le jeu" style="ellipse;whiteSpace=wrap;html=1;" vertex="1" parent="1">
          <mxGeometry x="332.5" y="430" width="120" height="50" as="geometry" />
        </mxCell>
        <mxCell id="0EuvKEp8oKL2YxaMZls--16" value="" style="endArrow=none;html=1;rounded=0;entryX=0.022;entryY=0.66;entryDx=0;entryDy=0;entryPerimeter=0;" edge="1" parent="1" target="0EuvKEp8oKL2YxaMZls--12">
          <mxGeometry width="50" height="50" relative="1" as="geometry">
            <mxPoint x="180" y="580" as="sourcePoint" />
            <mxPoint x="230" y="530" as="targetPoint" />
          </mxGeometry>
        </mxCell>
        <mxCell id="0EuvKEp8oKL2YxaMZls--17" value="" style="endArrow=none;html=1;rounded=0;exitX=1;exitY=0.3333333333333333;exitDx=0;exitDy=0;exitPerimeter=0;entryX=0;entryY=0.5;entryDx=0;entryDy=0;" edge="1" parent="1" source="0EuvKEp8oKL2YxaMZls--5" target="0EuvKEp8oKL2YxaMZls--14">
          <mxGeometry width="50" height="50" relative="1" as="geometry">
            <mxPoint x="270" y="430" as="sourcePoint" />
            <mxPoint x="320" y="380" as="targetPoint" />
          </mxGeometry>
        </mxCell>
        <mxCell id="0EuvKEp8oKL2YxaMZls--18" value="" style="endArrow=none;html=1;rounded=0;entryX=0;entryY=0.5;entryDx=0;entryDy=0;" edge="1" parent="1" target="0EuvKEp8oKL2YxaMZls--10">
          <mxGeometry width="50" height="50" relative="1" as="geometry">
            <mxPoint x="180" y="310" as="sourcePoint" />
            <mxPoint x="230" y="260" as="targetPoint" />
          </mxGeometry>
        </mxCell>
        <mxCell id="0EuvKEp8oKL2YxaMZls--19" value="" style="endArrow=none;html=1;rounded=0;entryX=0;entryY=0.5;entryDx=0;entryDy=0;" edge="1" parent="1" target="0EuvKEp8oKL2YxaMZls--8">
          <mxGeometry width="50" height="50" relative="1" as="geometry">
            <mxPoint x="180" y="350" as="sourcePoint" />
            <mxPoint x="230" y="300" as="targetPoint" />
          </mxGeometry>
        </mxCell>
        <mxCell id="0EuvKEp8oKL2YxaMZls--20" value="modifier le roman et le jeu" style="ellipse;whiteSpace=wrap;html=1;" vertex="1" parent="1">
          <mxGeometry x="520" y="180" width="135" height="50" as="geometry" />
        </mxCell>
        <mxCell id="0EuvKEp8oKL2YxaMZls--22" value="supprimer le roman et&amp;nbsp; le jeu" style="ellipse;whiteSpace=wrap;html=1;" vertex="1" parent="1">
          <mxGeometry x="530" y="250" width="140" height="60" as="geometry" />
        </mxCell>
        <mxCell id="0EuvKEp8oKL2YxaMZls--23" value="" style="endArrow=none;html=1;rounded=0;entryX=0;entryY=0.5;entryDx=0;entryDy=0;exitX=1;exitY=0.5;exitDx=0;exitDy=0;" edge="1" parent="1" source="0EuvKEp8oKL2YxaMZls--27" target="0EuvKEp8oKL2YxaMZls--13">
          <mxGeometry width="50" height="50" relative="1" as="geometry">
            <mxPoint x="452.5" y="240" as="sourcePoint" />
            <mxPoint x="502.5" y="190" as="targetPoint" />
          </mxGeometry>
        </mxCell>
        <mxCell id="0EuvKEp8oKL2YxaMZls--24" value="" style="endArrow=none;html=1;rounded=0;entryX=0;entryY=0.5;entryDx=0;entryDy=0;exitX=0.967;exitY=0.72;exitDx=0;exitDy=0;exitPerimeter=0;" edge="1" parent="1" source="0EuvKEp8oKL2YxaMZls--27" target="0EuvKEp8oKL2YxaMZls--20">
          <mxGeometry width="50" height="50" relative="1" as="geometry">
            <mxPoint x="460" y="190" as="sourcePoint" />
            <mxPoint x="500" y="300" as="targetPoint" />
          </mxGeometry>
        </mxCell>
        <mxCell id="0EuvKEp8oKL2YxaMZls--25" value="" style="endArrow=none;html=1;rounded=0;entryX=0.075;entryY=0.217;entryDx=0;entryDy=0;entryPerimeter=0;exitX=1;exitY=1;exitDx=0;exitDy=0;" edge="1" parent="1" source="0EuvKEp8oKL2YxaMZls--27" target="0EuvKEp8oKL2YxaMZls--22">
          <mxGeometry width="50" height="50" relative="1" as="geometry">
            <mxPoint x="430" y="260" as="sourcePoint" />
            <mxPoint x="480" y="210" as="targetPoint" />
          </mxGeometry>
        </mxCell>
        <mxCell id="0EuvKEp8oKL2YxaMZls--26" value="gÃ©rer le compte d&#39;utilisateur" style="ellipse;whiteSpace=wrap;html=1;" vertex="1" parent="1">
          <mxGeometry x="330" y="370" width="130" height="50" as="geometry" />
        </mxCell>
        <mxCell id="0EuvKEp8oKL2YxaMZls--27" value="se connecter" style="ellipse;whiteSpace=wrap;html=1;" vertex="1" parent="1">
          <mxGeometry x="322.5" y="140" width="135" height="50" as="geometry" />
        </mxCell>
        <mxCell id="0EuvKEp8oKL2YxaMZls--29" value="" style="endArrow=none;html=1;rounded=0;" edge="1" parent="1" target="0EuvKEp8oKL2YxaMZls--27">
          <mxGeometry width="50" height="50" relative="1" as="geometry">
            <mxPoint x="180" y="310" as="sourcePoint" />
            <mxPoint x="230" y="260" as="targetPoint" />
          </mxGeometry>
        </mxCell>
        <mxCell id="0EuvKEp8oKL2YxaMZls--30" value="" style="endArrow=none;html=1;rounded=0;entryX=0;entryY=1;entryDx=0;entryDy=0;" edge="1" parent="1" target="0EuvKEp8oKL2YxaMZls--26">
          <mxGeometry width="50" height="50" relative="1" as="geometry">
            <mxPoint x="180" y="570" as="sourcePoint" />
            <mxPoint x="230" y="520" as="targetPoint" />
          </mxGeometry>
        </mxCell>
      </root>
    </mxGraphModel>
  </diagram>
</mxfile>
